<svg xmlns="http://www.w3.org/2000/svg" width="1407" height="864" fill="none"><path fill="#0D3479" fill-opacity=".1" d="M251.825 699.114H0V579.198L239.833 11.992h143.9v567.206h62.357v119.916h-62.357v152.295H251.825zm0-119.916V251.825h-2.399l-129.51 327.373zM701.981 863.4q-97.133 0-148.697-55.162T501.72 652.347V211.053q0-100.73 51.564-155.891Q604.848 0 701.981 0q97.132 0 148.696 55.162t51.565 155.891v441.294q0 100.73-51.565 155.891Q799.113 863.4 701.981 863.4m0-119.917q68.352 0 68.352-82.742V202.659q0-82.742-68.352-82.742t-68.353 82.742v458.082q0 82.742 68.353 82.742m510.109-44.369H960.27V579.198L1200.1 11.992H1344v567.206h62.36v119.916H1344v152.295h-131.91zm0-119.916V251.825h-2.39l-129.51 327.373z"/></svg>