<svg xmlns="http://www.w3.org/2000/svg" width="32" height="32" fill="none"><path fill="#EEEDE4" d="M0 0h32v32H0z"/><path fill="#0D3479" d="m10.797 26.025-1.989-1.341L20.801 7.28l1.99 1.341zm5.002-.678q-2.471 0-4.279-1.085t-2.802-3.044q-.98-1.959-.98-4.55 0-2.622.98-4.58.995-1.958 2.802-3.044 1.808-1.085 4.28-1.085 2.47 0 4.278 1.085 1.809 1.085 2.803 3.044.994 1.958.994 4.58 0 2.592-.994 4.55-.995 1.959-2.803 3.044t-4.279 1.084Zm0-3.195q1.372 0 2.26-.723.89-.738 1.326-1.989.452-1.25.452-2.787 0-1.553-.452-2.787-.437-1.251-1.326-1.974-.89-.739-2.26-.739-1.34 0-2.245.739-.904.723-1.356 1.974-.437 1.235-.437 2.787 0 1.537.437 2.787.452 1.25 1.356 1.99.904.722 2.245.722"/></svg>