<svg xmlns="http://www.w3.org/2000/svg" width="1420" height="255" fill="none"><path fill="#0D3479" d="M57.179 254.129q-27.883 0-42.708-15.883Q.001 222.363 0 193.42V60.709q0-28.943 14.471-44.826Q29.295 0 57.18 0q27.884 0 42.355 15.883 14.824 15.883 14.824 44.826v26.118H77.65v-28.59q0-22.941-19.412-22.941c-19.412 0-19.413 7.647-19.413 22.942v138.006q0 22.59 19.413 22.589c19.413-.001 19.412-7.529 19.412-22.589v-37.766h36.708v34.942q0 28.942-14.824 44.826-14.472 15.883-42.355 15.883m137.218 0q-28.59 0-43.767-16.236t-15.177-45.884V62.12q0-29.648 15.177-45.884T194.397 0q28.589 0 43.766 16.236T253.34 62.12v129.89q0 29.648-15.177 45.884t-43.766 16.236Zm0-35.296q20.118 0 20.118-24.354V59.649q0-24.353-20.118-24.353-20.12 0-20.119 24.354v134.829q0 24.354 20.119 24.354m85.2-215.303h48.708l37.766 147.888h.706V3.53h34.59v247.069h-39.884l-46.59-180.36h-.706v180.36h-34.59V3.529Zm201.1 250.599q-28.236 0-42.708-15.883-14.47-16.237-14.471-46.237V177.89h36.707v16.942q0 24.001 20.119 24.001 9.882 0 14.824-5.647 5.294-6 5.294-19.06 0-15.53-7.059-27.177-7.059-12.002-26.118-28.59-24.002-21.177-33.531-38.119-9.53-17.295-9.53-38.825 0-29.295 14.824-45.179Q453.872 0 482.109 0q27.883 0 42.002 16.236 14.47 15.884 14.471 45.884v10.236h-36.708V59.65q0-12.707-4.941-18.354-4.941-6-14.471-6-19.413 0-19.413 23.648 0 13.412 7.059 25.06 7.413 11.647 26.472 28.236 24.354 21.178 33.531 38.473t9.177 40.59q0 30.354-15.177 46.59-14.824 16.236-43.414 16.236M591.903 38.825h-40.59V3.53h120.005v35.295h-40.59V250.6h-38.825zM703.917 3.53h52.591l40.237 247.069H757.92l-7.059-49.061v.706h-44.12l-7.059 48.355H663.68l40.237-247.07Zm42.355 165.183L728.977 46.59h-.706l-16.942 122.123zM815.581 3.53h48.708l37.767 147.888h.706V3.53h34.589v247.069h-39.884l-46.59-180.36h-.706v180.36h-34.59V3.529Zm180.982 35.295h-40.59V3.53h120.007v35.295h-40.59V250.6h-38.827zM1094.78 3.53h38.82v247.069h-38.82V3.529Zm67.9 0h48.71l37.76 147.888h.71V3.53h34.59v247.069h-39.89l-46.59-180.36h-.7v180.36h-34.59V3.529Zm150.63 0h105.88v35.295h-67.06v65.297h53.3v35.296h-53.3v75.886h67.06v35.295h-105.88V3.529Z"/></svg>