<svg xmlns="http://www.w3.org/2000/svg" width="159" height="13" fill="none"><path fill="#0D3479" d="M5.054.14a20 20 0 0 0-1.526 2.31 14 14 0 0 0-.994 2.198Q2.17 5.74 2.002 6.874a17 17 0 0 0-.154 2.366q0 .924.154 1.834.168.91.378 1.834H.868q-.195-.435-.364-1.022a14 14 0 0 1-.266-1.204q-.112-.615-.182-1.204A11 11 0 0 1 0 8.442Q0 7.14.224 6.048t.644-2.072a12.4 12.4 0 0 1 1.036-1.918q.615-.938 1.4-1.918zm9.565 3.71q0-.924-.504-1.386-.49-.476-1.288-.476-.84 0-1.47.392-.615.378-1.022.994a4.6 4.6 0 0 0-.588 1.358q-.196.742-.196 1.456 0 .518.126.98.14.462.406.826.28.35.7.56.435.21 1.036.21.449 0 .84-.154.406-.168.714-.434.308-.28.518-.644a2.3 2.3 0 0 0 .28-.756h2.198q-.336 1.05-.798 1.778a4.6 4.6 0 0 1-1.022 1.19 3.5 3.5 0 0 1-1.26.644q-.686.21-1.498.21-2.128 0-3.29-1.134Q7.353 8.33 7.353 6.188q0-1.218.378-2.31A5.9 5.9 0 0 1 8.809 1.96 5.2 5.2 0 0 1 10.531.63q1.022-.49 2.282-.49.868 0 1.61.238.743.239 1.274.714.546.462.84 1.162.294.686.28 1.596zm11.959-1.904q.308.49.462 1.106.168.616.168 1.372a7.6 7.6 0 0 1-.364 2.352A6 6 0 0 1 25.78 8.75a5 5 0 0 1-1.708 1.358q-1.008.49-2.324.49-2.114 0-3.248-1.148l-1.414 1.302-.546-.602 1.428-1.344q-.658-1.035-.658-2.618 0-1.218.378-2.31a5.9 5.9 0 0 1 1.078-1.918A5.2 5.2 0 0 1 20.488.63Q21.51.14 22.77.14q2.128 0 3.276 1.148L27.432 0l.574.63zm-6.524 6.048q.28.364.7.574.434.196 1.022.196.812 0 1.414-.378a3.5 3.5 0 0 0 1.008-.994q.405-.615.602-1.358.21-.742.21-1.456 0-.588-.14-1.05zm4.438-5.25a1.9 1.9 0 0 0-.7-.56q-.42-.195-1.008-.196-.84 0-1.47.392-.615.378-1.022.994a4.6 4.6 0 0 0-.588 1.358q-.195.742-.196 1.456 0 .546.154 1.05zM29.326.378h2.268L34.31 7.49h.029L35.767.378h2.015l-2.113 9.996H33.47L30.727 3.36h-.029l-1.428 7.014h-2.043l2.1-9.996Zm10.055 6.678q-.027.532.126.896.154.35.448.56t.7.308q.406.084.882.084.336 0 .672-.084t.602-.252a1.3 1.3 0 0 0 .448-.434q.182-.266.182-.644a.8.8 0 0 0-.224-.588 1.9 1.9 0 0 0-.588-.406 5 5 0 0 0-.812-.294 47 47 0 0 1-.91-.266 8 8 0 0 1-.924-.336 3.3 3.3 0 0 1-.812-.504 2.5 2.5 0 0 1-.574-.756q-.21-.449-.21-1.092 0-.84.35-1.428a2.9 2.9 0 0 1 .91-.952 3.8 3.8 0 0 1 1.26-.546 5.8 5.8 0 0 1 2.884 0 3.1 3.1 0 0 1 1.19.56q.518.391.812 1.008.309.602.308 1.47h-2.086q.015-.42-.126-.7a1.1 1.1 0 0 0-.378-.476 1.4 1.4 0 0 0-.574-.252 2.9 2.9 0 0 0-1.344-.014 1.6 1.6 0 0 0-.56.21q-.252.14-.406.378a1.06 1.06 0 0 0-.154.588q.001.364.266.616a2.7 2.7 0 0 0 .658.406q.393.154.798.252.406.084.658.14.588.154 1.078.364.49.195.84.518.365.322.56.784t.196 1.134q0 .896-.378 1.526-.363.63-.952 1.022a3.8 3.8 0 0 1-1.302.56 6 6 0 0 1-1.442.182q-2.1 0-3.136-.854-1.021-.854-1.022-2.688zm10.395-4.83H46.64l.392-1.848h8.344l-.392 1.848h-2.996l-1.708 8.148h-2.212zM57.567.378h2.254l1.666 9.996h-2.184l-.322-2.226h-3.738l-1.26 2.226h-2.31zM56.111 6.51h2.674l-.49-3.976h-.028zM63.959.378h2.268l2.716 7.112h.028L70.399.378h2.016l-2.114 9.996h-2.198L65.359 3.36h-.028l-1.428 7.014h-2.044zm11.79 1.848h-3.135l.392-1.848h8.344l-.392 1.848h-2.996l-1.708 8.148h-2.212zM82.056.378h2.211l-2.114 9.996h-2.198l2.1-9.996Zm3.722 0h2.268l2.716 7.112h.028L92.217.378h2.016l-2.114 9.996h-2.198L87.177 3.36h-.028l-1.428 7.014h-2.044l2.1-9.996Zm9.943 0h7.63l-.378 1.848H97.54l-.448 2.142h5.026l-.364 1.708h-5.026l-.518 2.45h5.516l-.392 1.848h-7.7L95.72.378Zm15.18 0h2.254l1.666 9.996h-2.184l-.322-2.226h-3.738l-1.26 2.226h-2.31zm-1.456 6.132h2.674l-.49-3.976h-.028zm7.848-6.132h2.268l2.716 7.112h.028l1.428-7.112h2.016l-2.114 9.996h-2.198l-2.744-7.014h-.028l-1.428 7.014h-2.044zm15.403 8.974h-.028q-.49.672-1.148.966a3.5 3.5 0 0 1-1.372.28q-2.127 0-3.29-1.134-1.148-1.134-1.148-3.276 0-1.218.378-2.31a6 6 0 0 1 1.078-1.918 5.2 5.2 0 0 1 1.722-1.33q1.022-.49 2.282-.49.882 0 1.652.21a3.9 3.9 0 0 1 1.344.644 3.1 3.1 0 0 1 .91 1.106q.336.658.336 1.582h-2.198q-.042-.924-.574-1.302-.532-.392-1.456-.392-.84 0-1.47.392-.615.378-1.022.994a4.6 4.6 0 0 0-.588 1.358q-.196.742-.196 1.456 0 .518.126.98.14.462.406.826.28.35.7.56.435.21 1.036.21.63 0 1.078-.154a2.5 2.5 0 0 0 .784-.448q.336-.28.546-.672.225-.406.364-.882h-2.31l.35-1.638h4.242l-1.148 5.404h-1.386zm4.743-8.974h7.63l-.378 1.848h-5.432l-.448 2.142h5.026l-.364 1.708h-5.026l-.518 2.45h5.516l-.392 1.848h-7.7zm8.918 0h2.212l-1.708 8.148h4.83l-.392 1.848h-7.028zm7.498 12.53a19 19 0 0 0 1.526-2.296q.602-1.106.966-2.198.378-1.092.532-2.212.168-1.134.168-2.38 0-.924-.168-1.834a33 33 0 0 0-.364-1.848h1.512q.181.434.336 1.022.168.588.28 1.218.112.616.182 1.204t.07 1.036q0 1.302-.224 2.394a10 10 0 0 1-.658 2.072q-.42.98-1.036 1.904a28 28 0 0 1-1.386 1.918z"/></svg>